<?xml version="1.0" standalone="no"?>
<!DOCTYPE svg PUBLIC "-//W3C//DTD SVG 20010904//EN"
 "http://www.w3.org/TR/2001/REC-SVG-20010904/DTD/svg10.dtd">
<svg version="1.0" xmlns="http://www.w3.org/2000/svg"
 width="300.000000pt" height="300.000000pt" viewBox="0 0 300.000000 300.000000"
 preserveAspectRatio="xMidYMid meet">
<metadata>
Created by potrace 1.11, written by Peter Selinger 2001-2013
</metadata>
<g transform="translate(0.000000,300.000000) scale(0.100000,-0.100000)"
fill="#000000" stroke="none">
<path d="M2335 2959 c-3 -4 2 -6 10 -5 21 3 28 13 10 13 -9 0 -18 -4 -20 -8z"/>
<path d="M2387 2959 c7 -7 15 -10 18 -7 3 3 -2 9 -12 12 -14 6 -15 5 -6 -5z"/>
<path d="M2364 2935 c-5 -12 -9 -13 -21 -4 -11 10 -13 10 -11 -1 2 -10 -166
-13 -897 -14 -495 -1 -918 -6 -940 -10 -63 -13 -176 -69 -224 -112 -24 -21
-48 -38 -52 -37 -5 2 -6 -4 -3 -12 4 -8 -1 -17 -10 -21 -9 -3 -16 -12 -16 -20
0 -7 -10 -20 -22 -28 -12 -9 -19 -16 -14 -16 5 0 3 -6 -3 -13 -6 -8 -8 -17 -4
-20 3 -4 1 -7 -5 -7 -6 0 -9 -7 -5 -15 3 -9 2 -15 -3 -14 -21 4 -28 -2 -14
-11 13 -8 12 -10 -2 -10 -10 0 -18 -5 -18 -11 0 -5 4 -8 8 -5 4 2 8 -4 8 -14
0 -15 -3 -17 -15 -7 -12 10 -13 9 -6 -2 4 -8 9 -30 10 -50 2 -20 1 -30 -2 -23
-10 26 -21 11 -13 -18 5 -19 5 -30 -1 -30 -6 0 -7 -6 -2 -12 12 -21 12 -39 0
-32 -7 3 -3 -2 8 -12 17 -14 17 -16 3 -11 -10 4 -18 2 -18 -3 0 -6 5 -10 11
-10 5 0 8 -4 5 -9 -4 -5 0 -12 6 -14 9 -4 10 -6 1 -6 -6 -1 -19 9 -27 21 -9
12 -16 17 -16 11 0 -7 5 -15 10 -18 6 -4 8 -11 5 -16 -4 -5 2 -9 11 -9 16 0
16 -1 -2 -16 -10 -8 -13 -13 -6 -9 7 4 12 0 12 -10 0 -11 -5 -15 -14 -12 -10
4 -13 1 -9 -9 3 -8 11 -13 17 -11 8 3 12 -8 11 -37 -1 -22 3 -47 9 -55 8 -11
8 -13 -1 -8 -9 6 -11 -2 -9 -28 2 -19 0 -33 -4 -30 -10 6 -19 -16 -13 -32 3
-6 12 -9 21 -6 10 3 13 2 6 -4 -5 -4 -10 -23 -9 -41 0 -20 -5 -37 -15 -42 -8
-5 -10 -10 -5 -10 6 0 16 -9 23 -21 10 -16 10 -19 1 -13 -9 5 -11 1 -7 -14 4
-15 2 -19 -8 -15 -8 3 -14 0 -14 -6 0 -6 6 -11 13 -11 8 0 14 -7 14 -15 0 -8
-4 -12 -8 -10 -14 9 -17 -21 -4 -39 8 -10 11 -25 8 -34 -5 -11 -2 -13 8 -8 8
4 6 1 -4 -8 -11 -8 -28 -13 -38 -11 -11 2 -17 0 -13 -6 3 -6 9 -8 12 -5 3 3
12 0 20 -7 13 -10 14 -9 7 2 -5 9 -4 12 3 7 15 -9 3 -36 -17 -37 -11 0 -10 -3
5 -9 12 -5 25 -14 30 -21 4 -7 3 -10 -4 -5 -7 4 -10 -5 -8 -29 2 -19 0 -32 -5
-29 -5 3 -7 10 -4 15 4 5 1 9 -5 9 -7 0 -9 -8 -5 -21 4 -13 3 -19 -2 -16 -5 4
-10 0 -10 -8 0 -18 14 -20 20 -2 3 9 8 9 18 -2 8 -8 10 -11 4 -9 -5 3 -15 0
-22 -7 -8 -9 -9 -15 -2 -17 14 -5 19 -57 6 -65 -6 -4 -7 -1 -2 7 5 9 4 11 -4
6 -9 -6 -9 -11 0 -23 10 -12 10 -16 -2 -24 -9 -5 -10 -9 -2 -9 7 0 17 8 22 18
6 9 11 12 11 7 0 -6 -6 -17 -12 -23 -10 -10 -10 -17 0 -32 11 -19 11 -19 -7
-8 -11 7 -17 16 -14 22 3 5 1 6 -6 2 -9 -6 -9 -11 -1 -21 8 -9 8 -15 0 -20 -5
-3 -10 -11 -10 -18 0 -6 7 -2 15 9 12 16 14 17 15 2 0 -9 3 -23 6 -32 3 -9 1
-16 -6 -16 -6 0 -8 5 -5 10 3 6 2 10 -4 10 -5 0 -13 -4 -16 -10 -3 -5 -1 -10
5 -10 6 0 8 -5 4 -12 -4 -7 -3 -8 4 -4 7 4 12 2 12 -3 0 -6 -5 -11 -12 -11 -6
0 -8 -3 -5 -7 4 -3 1 -13 -6 -21 -9 -13 -9 -14 1 -8 6 4 12 3 12 -3 0 -6 8 -8
18 -5 16 5 16 5 -1 -6 -19 -12 -24 -35 -5 -24 7 4 10 4 6 -1 -4 -4 -3 -17 3
-28 9 -15 8 -18 -2 -12 -9 6 -11 3 -6 -8 4 -11 2 -14 -9 -10 -11 4 -12 9 -5
16 14 14 14 27 1 27 -6 0 -9 -6 -8 -12 2 -7 -3 -12 -11 -10 -12 3 -12 1 0 -15
20 -25 32 -33 43 -26 5 3 6 1 2 -6 -4 -6 -12 -8 -18 -5 -6 4 -6 -1 1 -14 9
-16 8 -24 -5 -36 -15 -15 -8 -21 19 -17 4 0 7 -3 7 -9 0 -5 -4 -10 -8 -10 -5
0 -17 -7 -28 -15 -18 -14 -18 -14 4 -10 18 3 21 1 13 -14 -5 -9 -6 -23 -1 -31
9 -14 2 -42 -9 -36 -4 3 -8 -4 -8 -15 -1 -10 3 -19 8 -19 6 0 7 4 4 10 -3 6 1
7 10 3 12 -4 13 -8 4 -13 -7 -5 -9 -18 -5 -34 4 -16 2 -26 -4 -26 -6 0 -9 4
-6 9 3 4 -1 17 -10 27 -14 18 -15 18 -5 -3 8 -16 8 -23 -2 -26 -9 -4 -9 -6 1
-6 7 -1 10 -6 6 -13 -4 -7 -3 -8 4 -4 7 4 12 2 12 -3 0 -6 -5 -11 -12 -11 -6
0 -8 -3 -5 -7 4 -3 0 -14 -9 -24 -15 -17 -14 -18 17 -14 21 3 29 1 21 -4 -8
-4 -13 -12 -12 -17 1 -4 -7 -11 -17 -15 -10 -4 -12 -8 -5 -8 7 -1 10 -5 7 -11
-3 -6 1 -10 10 -10 10 0 13 5 9 12 -4 7 -3 8 4 4 8 -5 9 -13 3 -24 -5 -10 -8
-32 -7 -49 1 -19 -2 -29 -9 -26 -7 2 -12 -3 -12 -12 0 -10 6 -14 16 -10 8 3
12 3 8 -1 -4 -4 0 -18 9 -32 12 -18 13 -27 4 -36 -8 -8 -9 -6 -4 8 6 15 4 17
-6 11 -9 -6 -11 -4 -5 6 8 12 6 12 -8 0 -18 -15 -23 -26 -7 -16 6 3 10 -3 10
-14 0 -15 5 -19 18 -15 13 5 14 4 3 -4 -8 -6 -20 -8 -27 -5 -6 2 -15 0 -19 -6
-4 -7 0 -8 11 -4 12 5 15 3 9 -6 -6 -10 -3 -11 13 -2 14 7 23 8 27 1 9 -15 -3
-30 -19 -24 -8 3 -16 1 -20 -4 -3 -5 1 -9 9 -10 8 -1 22 -3 30 -4 8 -1 12 -5
9 -10 -3 -4 0 -8 6 -8 6 0 8 -4 5 -10 -3 -5 0 -10 7 -10 9 0 9 -3 -2 -10 -13
-9 -7 -14 13 -11 4 0 7 -3 7 -8 0 -6 -9 -9 -19 -8 -11 0 -17 5 -15 9 3 4 -2 5
-12 1 -15 -5 -15 -7 0 -15 9 -5 13 -15 10 -21 -4 -7 -4 -9 1 -5 4 4 15 2 24
-5 14 -11 14 -10 2 6 -9 11 -10 17 -2 17 11 0 15 -13 11 -39 -1 -12 1 -13 13
-2 13 10 15 9 13 -3 -1 -9 -6 -19 -11 -23 -4 -4 -5 -2 0 5 6 11 3 12 -14 2
-18 -9 -21 -30 -5 -30 3 0 3 4 -1 9 -7 12 36 11 52 -1 6 -5 14 -5 17 0 3 6 -1
12 -9 16 -8 3 -15 10 -15 16 0 5 9 2 20 -7 15 -14 17 -20 7 -32 -10 -12 -9
-14 6 -8 10 4 16 3 13 -2 -3 -4 8 -21 24 -36 27 -26 35 -26 31 -2 0 4 4 7 10
7 6 0 9 -6 6 -14 -7 -17 31 -54 41 -41 4 6 16 11 27 13 18 2 18 1 -3 -11 -27
-16 -18 -31 11 -16 10 6 17 7 14 1 -4 -5 0 -17 7 -28 8 -10 13 -23 12 -29 -2
-5 -1 -7 1 -2 7 11 23 8 39 -8 9 -9 26 -13 41 -10 14 2 34 0 44 -5 12 -7 20
-6 24 0 4 7 11 8 18 1 8 -6 20 -3 35 9 12 10 18 21 13 24 -5 4 -14 -2 -20 -11
-6 -10 -11 -13 -11 -7 0 5 6 16 13 23 10 12 8 13 -8 7 -16 -6 -18 -5 -7 5 9
10 15 10 23 2 6 -6 18 -9 25 -6 8 3 18 -6 24 -22 10 -27 11 -27 30 -10 11 10
23 15 27 12 3 -4 13 -1 21 5 21 18 42 19 35 1 -5 -12 -7 -12 -14 -1 -8 12 -10
11 -13 -11 0 -5 -5 -13 -10 -18 -5 -4 -6 -3 -3 4 8 13 -18 12 -30 -2 -4 -4 -2
-5 4 -1 7 4 13 3 13 -3 0 -5 9 -9 20 -8 10 1 17 3 15 6 -8 8 35 32 45 26 6 -3
10 -2 10 4 0 5 -6 12 -12 14 -10 4 -10 6 0 6 7 1 11 5 8 9 -2 4 6 8 19 8 22 0
25 -9 4 -12 -5 -1 -11 -2 -13 -3 -3 0 0 -15 6 -32 7 -20 13 -27 18 -19 4 6 11
10 15 8 5 -1 9 5 11 15 1 9 -2 17 -8 17 -6 0 -8 -6 -5 -13 3 -8 -1 -14 -8 -14
-11 0 -11 5 -4 19 11 20 36 19 31 -1 -3 -15 11 -14 26 1 23 23 62 12 62 -17 0
-5 -4 -4 -9 4 -6 9 -15 11 -27 6 -11 -5 -21 -9 -24 -9 -3 -1 -15 -8 -28 -17
-19 -14 -20 -18 -8 -22 9 -4 15 -1 13 6 -1 7 8 11 20 11 13 -1 20 2 18 6 -3 4
2 10 10 14 16 6 48 -31 39 -46 -9 -15 3 -8 17 9 8 9 9 14 2 10 -23 -14 -19 19
5 41 20 19 27 21 33 10 5 -7 7 -18 4 -25 -2 -7 1 -15 7 -19 6 -4 8 -3 5 3 -4
6 4 11 18 11 22 0 24 -3 13 -17 -12 -14 -11 -15 6 -1 21 16 106 22 106 6 0 -5
3 -7 6 -4 3 4 1 15 -5 26 -9 17 -7 19 14 16 14 -1 25 1 25 5 0 4 7 8 14 8 11
0 13 -5 5 -19 -5 -10 -12 -18 -15 -18 -3 0 -3 4 0 8 3 5 -1 9 -9 9 -19 0 -19
-5 0 -23 12 -12 15 -12 15 -2 0 9 3 9 8 2 10 -15 40 -13 46 3 3 8 1 11 -4 8
-6 -3 -10 -1 -10 4 0 6 7 11 15 11 8 0 15 5 15 10 0 6 5 10 11 10 8 0 8 -4 -1
-15 -9 -11 -8 -19 4 -37 9 -12 16 -17 16 -10 0 7 4 11 8 8 5 -3 9 1 9 9 0 7
-8 12 -19 10 -11 -2 -16 0 -12 6 3 6 15 9 25 6 11 -3 23 2 28 11 8 14 10 14 8
-5 0 -12 -5 -19 -9 -17 -4 3 -8 1 -8 -4 0 -6 7 -13 16 -16 8 -3 12 -2 9 4 -3
5 4 8 15 7 19 -1 24 -10 21 -30 -1 -5 3 -6 8 -2 6 3 7 13 4 23 -6 15 -5 16 12
2 11 -9 16 -10 11 -2 -5 8 -1 11 11 9 28 -4 44 -17 36 -30 -4 -7 4 -5 17 4 32
21 35 46 4 46 -13 0 -24 -3 -24 -7 0 -3 -7 -7 -15 -7 -8 0 -12 5 -8 10 3 5 -4
4 -15 -2 -16 -8 -21 -7 -26 6 -4 9 -4 18 -1 21 3 3 5 0 5 -7 0 -11 32 -10 87
3 16 3 24 -1 28 -15 4 -10 11 -19 17 -19 6 0 8 3 5 7 -4 3 -2 12 4 19 8 10 16
11 30 3 10 -5 19 -6 19 -2 0 4 5 2 12 -5 18 -18 33 -15 18 4 -8 8 -9 14 -4 13
19 -3 35 1 30 9 -2 4 6 8 19 8 13 0 21 -4 19 -8 -3 -5 -9 -6 -14 -3 -14 8 -18
-8 -9 -32 5 -15 14 -21 24 -17 8 3 15 1 15 -4 0 -6 9 -9 20 -7 11 2 24 -3 28
-12 7 -11 11 -12 16 -4 4 6 2 11 -5 11 -8 0 -8 4 1 15 7 8 11 15 9 16 -26 5
-51 7 -41 3 6 -3 9 -10 6 -15 -3 -6 -12 -2 -21 8 -8 10 -12 13 -9 8 2 -6 -4
-11 -14 -11 -14 0 -16 4 -9 18 6 11 17 15 32 12 31 -7 51 -12 57 -14 15 -6 37
-4 48 4 9 6 11 5 7 -5 -3 -8 1 -23 10 -34 11 -15 14 -16 9 -3 -4 13 0 16 23
14 15 -1 33 -4 38 -7 9 -5 21 -5 40 0 3 0 1 9 -4 19 -7 14 -6 18 9 18 10 0 16
-6 13 -13 -4 -9 0 -11 11 -7 12 5 15 2 10 -12 -6 -17 -5 -17 10 1 11 13 14 15
11 4 -3 -9 2 -22 12 -29 15 -12 16 -12 6 0 -7 8 -13 18 -13 22 0 11 23 6 32
-7 5 -6 8 -5 8 3 0 6 8 12 17 12 13 0 14 -3 5 -12 -15 -15 -15 -28 -1 -28 5 0
8 4 5 9 -3 5 1 14 8 20 10 9 16 9 21 1 5 -8 10 -8 20 0 9 7 15 8 19 1 8 -12
36 -3 36 11 0 5 -6 6 -12 3 -7 -4 -4 0 6 9 10 8 23 13 27 10 5 -3 9 1 9 8 0 7
9 -2 20 -19 11 -18 23 -33 26 -33 4 0 1 7 -6 15 -7 8 -8 15 -2 15 5 0 15 -7
22 -16 21 -24 47 -35 47 -19 0 8 -7 11 -16 7 -14 -5 -14 -4 -2 11 13 17 16 16
40 -5 14 -13 20 -16 14 -8 -8 10 -9 21 -3 30 14 21 12 32 -2 24 -9 -5 -9 -2 1
9 7 9 16 17 19 17 3 0 2 -3 -1 -7 -4 -3 -2 -12 4 -20 6 -7 7 -13 2 -13 -5 0
-10 -7 -10 -15 0 -8 3 -13 5 -10 3 3 12 -1 21 -8 14 -10 14 -10 3 5 -12 14
-11 21 1 38 8 12 18 17 21 12 3 -6 -2 -13 -11 -16 -12 -5 -13 -10 -6 -17 13
-13 36 -2 28 12 -4 5 -2 9 4 9 6 0 8 7 5 15 -4 8 -1 15 4 15 6 0 9 -8 7 -18
-2 -11 6 -24 18 -32 19 -12 21 -11 9 2 -19 23 -9 63 16 64 35 2 38 4 22 14
-12 7 -11 9 5 9 38 -1 55 7 72 32 9 13 18 26 19 28 2 2 9 -1 16 -6 14 -11 52
-14 42 -4 -3 3 -11 6 -17 6 -7 0 -12 10 -13 22 -1 15 3 20 14 15 11 -4 13 -2
7 8 -5 8 -4 11 3 6 6 -3 9 -15 7 -26 -2 -11 0 -20 6 -20 5 0 9 14 9 30 0 17
-4 30 -10 30 -5 0 -10 5 -10 11 0 6 5 7 13 2 6 -4 22 -8 34 -8 16 -1 19 2 12
11 -6 7 -16 12 -22 10 -7 -1 -9 -1 -4 1 4 3 4 9 1 15 -4 5 4 4 17 -3 27 -15
71 -20 63 -8 -2 4 -14 6 -25 4 -13 -3 -19 0 -16 8 3 7 10 11 16 9 7 -1 10 2 6
8 -3 5 1 13 9 16 9 3 16 11 16 16 0 6 -8 4 -17 -3 -15 -12 -16 -12 -10 5 5 12
1 26 -10 39 -10 11 -13 17 -6 14 15 -9 27 9 12 19 -8 5 -8 9 2 14 7 5 14 19
16 31 6 40 19 41 18 2 -1 -25 -6 -37 -15 -35 -7 2 -10 -3 -7 -11 3 -8 1 -19
-4 -24 -14 -14 14 -24 32 -11 11 8 10 9 -5 4 -14 -5 -17 -2 -12 10 3 8 6 18 6
20 0 3 4 3 9 0 5 -4 8 2 6 11 -1 10 5 26 13 36 9 10 12 17 7 15 -6 -2 -10 2
-10 7 0 6 6 9 12 9 7 -1 10 3 7 8 -3 5 -12 7 -20 4 -20 -8 -17 11 4 24 15 10
15 10 -4 5 -14 -4 -21 -1 -21 9 0 9 4 13 9 10 4 -3 8 -1 8 5 0 5 -6 11 -12 14
-7 2 -10 8 -6 12 4 4 16 2 25 -6 17 -13 17 -12 2 6 -24 30 -31 55 -14 48 8 -3
13 -8 10 -12 -2 -4 3 -8 11 -8 11 0 10 5 -5 21 -10 12 -16 27 -13 35 2 8 0 11
-5 8 -5 -3 -10 0 -10 7 0 8 7 12 15 8 11 -4 13 -2 6 9 -5 8 -9 23 -9 34 0 11
-5 26 -9 34 -6 9 -5 12 0 8 6 -3 16 4 24 16 12 20 12 21 -4 8 -15 -12 -16 -10
-11 25 2 22 11 44 19 50 12 8 11 12 -6 23 -11 7 -17 18 -14 27 3 9 1 25 -5 36
-7 13 -7 18 -1 14 6 -3 13 -2 17 4 3 5 2 10 -3 10 -6 0 -12 6 -15 14 -4 10 1
12 16 9 20 -4 20 -3 4 7 -9 6 -15 15 -12 21 4 5 0 9 -7 9 -9 0 -9 3 2 10 8 5
11 10 6 10 -5 0 -3 6 3 14 9 10 9 16 1 21 -6 4 -8 15 -5 25 3 10 1 22 -6 25
-16 11 11 26 36 20 11 -2 8 1 -7 7 -30 13 -48 41 -20 31 13 -5 14 -3 5 7 -6 7
-9 19 -6 26 3 8 -1 21 -8 30 -11 13 -9 15 17 9 28 -5 29 -5 4 6 -24 11 -24 11
-5 19 19 8 18 11 -4 14 -5 0 -13 5 -18 10 -4 5 -4 7 2 4 6 -3 15 0 22 7 10 10
9 14 -3 19 -10 4 -13 2 -8 -6 4 -7 3 -8 -4 -4 -8 5 -9 13 -2 25 6 12 5 22 -3
31 -9 10 -9 11 1 6 13 -8 18 25 5 38 -15 14 -12 38 4 32 13 -5 14 -4 3 9 -7 8
-9 15 -5 15 4 0 1 7 -6 17 -13 15 -12 15 8 5 32 -17 41 -15 15 4 -13 9 -21 21
-19 27 2 7 0 21 -6 31 -8 16 -6 18 7 13 14 -6 15 -3 6 13 -6 11 -7 20 -3 20 4
0 1 5 -7 11 -12 9 -12 10 4 5 15 -5 17 -4 8 7 -7 8 -9 17 -5 20 3 4 0 7 -8 8
-8 0 0 7 16 15 21 10 24 14 10 13 -33 -2 -36 0 -25 22 8 15 8 24 0 34 -6 7 -7
16 -2 19 10 6 9 36 -1 53 -5 7 -1 9 12 6 10 -3 22 1 26 8 5 8 4 10 -3 5 -21
-13 -34 5 -15 20 14 11 15 13 2 8 -27 -9 -31 32 -5 50 18 13 18 15 2 9 -13 -4
-17 -3 -12 5 4 7 2 12 -4 12 -6 0 -8 5 -5 10 5 8 11 8 20 0 10 -8 15 -8 21 1
4 7 3 9 -4 5 -15 -9 -34 28 -25 50 5 12 3 15 -6 9 -10 -6 -11 -3 -1 15 9 18 9
24 0 30 -9 6 -6 14 11 31 17 17 18 21 5 16 -14 -6 -16 -3 -11 14 5 15 4 19 -5
14 -9 -6 -9 -2 0 15 9 18 9 24 0 30 -9 6 -6 14 11 31 17 17 18 21 5 16 -14 -6
-16 -3 -11 14 5 14 3 19 -3 15 -6 -4 -8 2 -5 15 4 16 8 17 14 7 6 -9 9 -9 9
-1 0 7 -8 17 -17 23 -16 10 -16 11 3 7 22 -5 27 14 9 30 -4 4 -5 2 -1 -4 4 -7
3 -13 -3 -13 -14 0 -23 18 -12 25 6 3 6 17 -1 35 -5 17 -8 37 -4 45 3 8 2 16
-2 19 -5 3 -8 17 -7 33 0 15 -3 31 -8 34 -5 3 -9 12 -11 20 -3 21 -60 119 -68
119 -5 0 -8 5 -8 12 0 15 -85 92 -127 114 -17 10 -37 27 -43 38 -9 19 -10 19
-5 2 6 -20 6 -20 -16 0 -14 11 -19 13 -14 4 8 -13 6 -13 -8 -2 -9 8 -21 11
-27 7 -5 -3 -10 -1 -10 4 0 6 -11 11 -24 11 -14 0 -28 5 -31 10 -5 8 -11 7
-21 -1 -11 -9 -14 -8 -14 2 0 11 -2 11 -10 -1 -7 -11 -10 -11 -10 -2 0 8 -5
10 -12 6 -8 -5 -9 -2 -5 9 3 10 4 17 1 17 -2 0 -7 -7 -10 -15z m-2259 -1675
c-3 -5 -11 -10 -16 -10 -6 0 -7 5 -4 10 3 6 11 10 16 10 6 0 7 -4 4 -10z
m2775 -335 c0 -12 -19 -12 -23 0 -4 9 -1 12 9 8 7 -3 14 -7 14 -8z m-2770
-140 c0 -2 -10 -10 -22 -16 -21 -11 -22 -11 -9 4 13 16 31 23 31 12z m2700
-385 c0 -5 -5 -10 -11 -10 -5 0 -7 5 -4 10 3 6 8 10 11 10 2 0 4 -4 4 -10z m4
-29 c9 -15 -18 -31 -34 -20 -13 8 -13 10 0 19 19 12 27 12 34 1z m-124 -121
c0 -5 -2 -10 -4 -10 -3 0 -8 5 -11 10 -3 6 -1 10 4 10 6 0 11 -4 11 -10z
m-2400 -25 c14 -19 14 -19 -2 -6 -10 7 -18 18 -18 24 0 6 1 8 3 6 1 -2 9 -13
17 -24z m2365 -4 c-3 -2 -16 -6 -28 -8 -15 -2 -18 0 -9 5 14 9 45 12 37 3z
m-115 -55 c0 -2 -8 -10 -17 -17 -16 -13 -17 -12 -4 4 13 16 21 21 21 13z
m-2095 -26 c3 -5 1 -10 -4 -10 -6 0 -11 5 -11 10 0 6 2 10 4 10 3 0 8 -4 11
-10z m662 -12 c2 -17 0 -19 -7 -8 -5 8 -6 18 -4 22 8 12 10 10 11 -14z m80 7
c0 -8 -4 -12 -9 -9 -5 3 -6 10 -3 15 9 13 12 11 12 -6z m160 0 c0 -8 -4 -12
-9 -9 -5 3 -6 10 -3 15 9 13 12 11 12 -6z m80 0 c0 -8 -4 -12 -9 -9 -5 3 -6
10 -3 15 9 13 12 11 12 -6z m640 0 c0 -8 -4 -12 -9 -9 -5 3 -6 10 -3 15 9 13
12 11 12 -6z m80 -7 c2 -17 0 -19 -7 -8 -5 8 -6 18 -4 22 8 12 10 10 11 -14z
m123 12 c0 -5 -5 -10 -11 -10 -5 0 -7 5 -4 10 3 6 8 10 11 10 2 0 4 -4 4 -10z
m-1785 -30 c4 -11 11 -18 16 -14 5 3 6 11 2 17 -4 8 -1 7 9 -1 14 -11 18 -10
27 5 6 10 11 13 11 8 0 -6 -5 -16 -12 -23 -16 -16 4 -16 21 1 11 10 12 9 6 -1
-4 -8 -2 -13 6 -11 27 3 37 -1 44 -18 5 -14 4 -15 -6 -6 -9 9 -16 10 -26 2 -8
-7 -13 -8 -13 -1 0 5 -17 9 -37 7 -20 -1 -42 2 -47 7 -6 5 -20 15 -31 23 -19
14 -19 15 -1 8 13 -4 17 -3 12 5 -4 7 -3 12 3 12 5 0 13 -9 16 -20z m125 14
c0 -8 -19 -13 -24 -6 -3 5 1 9 9 9 8 0 15 -2 15 -3z m110 -4 c-18 -12 -30 -13
-30 -2 0 4 10 9 22 9 18 2 20 0 8 -7z m50 1 c0 -6 -4 -12 -8 -15 -5 -3 -9 1
-9 9 0 8 4 15 9 15 4 0 8 -4 8 -9z m164 -3 c-3 -4 -9 -8 -15 -8 -5 0 -9 4 -9
8 0 5 7 9 15 9 8 0 12 -4 9 -9z m517 -6 c-7 -13 -7 -22 1 -30 8 -8 6 -10 -7
-8 -10 1 -19 10 -21 19 -1 10 1 15 6 12 4 -3 10 2 14 10 3 8 8 15 11 15 3 0 1
-8 -4 -18z m169 13 c0 -2 -6 -8 -13 -14 -10 -8 -14 -7 -14 2 0 8 6 14 14 14 7
0 13 -1 13 -2z m54 -7 c-3 -4 -9 -8 -15 -8 -5 0 -9 4 -9 8 0 5 7 9 15 9 8 0
12 -4 9 -9z m160 0 c-3 -4 -9 -8 -15 -8 -5 0 -9 4 -9 8 0 5 7 9 15 9 8 0 12
-4 9 -9z m80 3 c-3 -4 -9 -6 -12 -6 -4 0 -12 -3 -18 -7 -6 -4 -11 -1 -11 5 0
7 11 13 23 13 13 0 21 -2 18 -5z m496 3 c0 -8 -19 -13 -24 -6 -3 5 1 9 9 9 8
0 15 -2 15 -3z m-1406 -20 c3 -8 2 -12 -4 -9 -6 3 -10 10 -10 16 0 14 7 11 14
-7z m79 -5 c-8 -8 -13 -7 -18 2 -5 8 -4 10 3 5 7 -4 12 -2 12 5 0 7 3 9 7 6 4
-4 2 -12 -4 -18z m237 17 c0 -2 -7 -7 -16 -10 -8 -3 -12 -2 -9 4 6 10 25 14
25 6z m-597 -26 c-10 -11 -19 -20 -21 -20 -1 0 2 9 8 20 6 11 15 20 20 20 6 0
2 -9 -7 -20z m458 -7 c-8 -15 -10 -15 -11 -2 0 17 10 32 18 25 2 -3 -1 -13 -7
-23z m778 -6 c0 -9 -2 -9 -6 1 -2 6 -9 12 -14 12 -6 0 -8 -4 -5 -8 2 -4 -4 -8
-14 -8 -15 0 -16 4 -9 18 8 15 14 16 29 8 11 -6 20 -16 19 -23z m26 12 c-5
-14 -3 -19 3 -15 6 3 13 2 16 -3 7 -10 -20 -9 -30 2 -7 7 2 37 11 37 4 0 3
-10 0 -21z m107 7 c14 -21 8 -30 -7 -10 -9 12 -14 14 -15 6 0 -14 -20 -7 -20
7 0 12 34 9 42 -3z m54 -1 c13 -1 24 3 24 9 0 5 7 3 16 -6 19 -19 10 -45 -10
-29 -7 6 -17 7 -21 3 -5 -4 -4 -1 0 7 6 11 4 13 -7 8 -9 -3 -24 1 -35 9 -10 9
-12 12 -5 9 7 -4 24 -8 38 -10z m89 2 c-11 -9 -15 -19 -10 -27 5 -9 4 -11 -3
-6 -16 10 -15 33 1 39 24 10 31 7 12 -6z m119 5 c14 8 17 8 11 -1 -4 -8 -2
-12 6 -10 26 3 39 -1 39 -13 0 -9 -3 -9 -12 0 -9 9 -15 9 -27 -2 -14 -12 -20
-11 -46 11 -16 14 -21 20 -10 15 14 -7 27 -7 39 0z m-1196 -23 c3 -11 1 -11
-7 1 -6 8 -11 10 -11 4 0 -6 -7 -11 -15 -11 -8 0 -15 5 -15 10 0 5 -8 3 -17
-4 -16 -12 -17 -12 -6 1 15 19 66 18 71 -1z m132 -5 c0 -8 -5 -12 -10 -9 -6 4
-8 11 -5 16 9 14 15 11 15 -7z m272 -16 c-12 -12 -35 -1 -27 12 3 5 13 6 21 3
10 -4 12 -9 6 -15z"/>
<path d="M2790 359 c0 -5 5 -7 10 -4 6 3 10 8 10 11 0 2 -4 4 -10 4 -5 0 -10
-5 -10 -11z"/>
<path d="M506 92 c-3 -5 1 -9 9 -9 8 0 12 4 9 9 -3 4 -7 8 -9 8 -2 0 -6 -4 -9
-8z"/>
<path d="M2175 80 c3 -5 8 -10 11 -10 2 0 4 5 4 10 0 6 -5 10 -11 10 -5 0 -7
-4 -4 -10z"/>
<path d="M2345 80 c3 -5 8 -10 11 -10 2 0 4 5 4 10 0 6 -5 10 -11 10 -5 0 -7
-4 -4 -10z"/>
<path d="M85 2511 c4 -8 2 -17 -6 -22 -9 -6 -10 -9 -2 -9 19 0 27 21 13 33
-10 9 -11 9 -5 -2z"/>
<path d="M2867 2459 c7 -7 15 -10 18 -7 3 3 -2 9 -12 12 -14 6 -15 5 -6 -5z"/>
<path d="M2870 2258 c0 -4 4 -8 9 -8 6 0 12 4 15 8 3 5 -1 9 -9 9 -8 0 -15 -4
-15 -9z"/>
<path d="M70 2195 c5 -7 6 -16 2 -21 -4 -5 -3 -5 2 -1 15 12 15 34 0 34 -9 0
-11 -4 -4 -12z"/>
<path d="M68 2153 c7 -3 16 -2 19 1 4 3 -2 6 -13 5 -11 0 -14 -3 -6 -6z"/>
<path d="M2870 2138 c0 -4 4 -8 9 -8 6 0 12 4 15 8 3 5 -1 9 -9 9 -8 0 -15 -4
-15 -9z"/>
<path d="M70 2101 c0 -6 4 -12 8 -15 5 -3 9 1 9 9 0 8 -4 15 -9 15 -4 0 -8 -4
-8 -9z"/>
<path d="M67 1993 c3 -7 8 -13 12 -13 4 0 8 6 8 13 0 8 -6 14 -13 14 -7 0 -10
-6 -7 -14z"/>
<path d="M67 1959 c7 -7 15 -10 18 -7 3 3 -2 9 -12 12 -14 6 -15 5 -6 -5z"/>
<path d="M2867 1959 c7 -7 15 -10 18 -7 3 3 -2 9 -12 12 -14 6 -15 5 -6 -5z"/>
<path d="M61 1906 c-10 -11 -9 -14 1 -12 14 2 23 15 15 22 -2 2 -10 -2 -16
-10z"/>
<path d="M2865 1831 c-6 -11 13 -26 22 -17 4 3 0 6 -8 6 -11 0 -11 2 1 10 9 6
10 10 3 10 -6 0 -14 -4 -18 -9z"/>
<path d="M55 1780 c3 -5 8 -10 11 -10 2 0 4 5 4 10 0 6 -5 10 -11 10 -5 0 -7
-4 -4 -10z"/>
<path d="M2876 1778 c3 -5 10 -6 15 -3 13 9 11 12 -6 12 -8 0 -12 -4 -9 -9z"/>
<path d="M75 1759 c-4 -6 -5 -12 -2 -15 2 -3 7 2 10 11 7 17 1 20 -8 4z"/>
<path d="M2877 1725 c3 -8 9 -12 14 -9 12 7 11 11 -5 17 -10 4 -13 1 -9 -8z"/>
<path d="M2882 1681 c-11 -6 -10 -10 0 -19 11 -8 14 -7 14 9 0 10 0 19 -1 19
0 0 -6 -4 -13 -9z"/>
<path d="M67 1629 c7 -7 15 -10 18 -7 3 3 -2 9 -12 12 -14 6 -15 5 -6 -5z"/>
<path d="M2878 1623 c7 -3 16 -2 19 1 4 3 -2 6 -13 5 -11 0 -14 -3 -6 -6z"/>
<path d="M2870 1606 c0 -2 7 -7 16 -10 8 -3 12 -2 9 4 -6 10 -25 14 -25 6z"/>
<path d="M2870 1546 c0 -2 7 -7 16 -10 8 -3 12 -2 9 4 -6 10 -25 14 -25 6z"/>
<path d="M55 1511 c-9 -15 15 -25 28 -12 9 9 7 10 -7 5 -13 -5 -17 -4 -12 4 4
7 5 12 2 12 -3 0 -7 -4 -11 -9z"/>
<path d="M2877 1488 c9 -10 17 -18 17 -18 1 0 2 8 2 18 0 10 -8 18 -18 18 -16
0 -16 -2 -1 -18z"/>
<path d="M50 1439 c0 -5 5 -7 10 -4 6 3 10 8 10 11 0 2 -4 4 -10 4 -5 0 -10
-5 -10 -11z"/>
<path d="M2878 1443 c7 -3 16 -2 19 1 4 3 -2 6 -13 5 -11 0 -14 -3 -6 -6z"/>
<path d="M2870 1426 c0 -2 7 -7 16 -10 8 -3 12 -2 9 4 -6 10 -25 14 -25 6z"/>
<path d="M2875 1280 c-3 -5 -1 -10 4 -10 6 0 11 5 11 10 0 6 -2 10 -4 10 -3 0
-8 -4 -11 -10z"/>
<path d="M59 1228 c-6 -21 -5 -37 2 -32 5 3 7 9 4 14 -3 4 1 11 7 13 10 4 10
6 1 6 -7 1 -13 0 -14 -1z"/>
<path d="M2876 1197 c3 -10 9 -15 12 -12 3 3 0 11 -7 18 -10 9 -11 8 -5 -6z"/>
<path d="M2876 1158 c3 -5 10 -6 15 -3 13 9 11 12 -6 12 -8 0 -12 -4 -9 -9z"/>
<path d="M2874 1096 c0 -12 6 -23 13 -23 7 0 13 4 13 9 0 4 -5 8 -11 8 -5 0
-8 4 -4 9 3 5 2 12 -3 15 -4 2 -8 -6 -8 -18z"/>
<path d="M65 1080 c-3 -5 -2 -10 4 -10 5 0 13 5 16 10 3 6 2 10 -4 10 -5 0
-13 -4 -16 -10z"/>
<path d="M2875 1000 c3 -5 8 -10 11 -10 2 0 4 5 4 10 0 6 -5 10 -11 10 -5 0
-7 -4 -4 -10z"/>
<path d="M59 988 c-6 -21 -5 -37 2 -32 5 3 7 9 4 14 -3 4 1 11 7 13 10 4 10 6
1 6 -7 1 -13 0 -14 -1z"/>
<path d="M2875 971 c-3 -5 -2 -12 3 -15 5 -3 9 1 9 9 0 17 -3 19 -12 6z"/>
<path d="M2875 881 c-6 -11 13 -26 22 -17 4 3 1 6 -6 6 -7 0 -9 5 -6 10 3 6 4
10 1 10 -3 0 -7 -4 -11 -9z"/>
<path d="M2890 820 c0 -5 5 -10 11 -10 5 0 7 5 4 10 -3 6 -8 10 -11 10 -2 0
-4 -4 -4 -10z"/>
<path d="M2873 795 c0 -8 6 -16 14 -19 11 -4 11 -1 3 14 -13 24 -17 25 -17 5z"/>
<path d="M2886 722 c-3 -5 1 -9 9 -9 8 0 12 4 9 9 -3 4 -7 8 -9 8 -2 0 -6 -4
-9 -8z"/>
<path d="M2870 696 c0 -2 7 -7 16 -10 8 -3 12 -2 9 4 -6 10 -25 14 -25 6z"/>
<path d="M71 658 c5 -10 11 -18 12 -18 2 0 3 8 3 18 0 10 -6 19 -13 19 -8 0
-9 -6 -2 -19z"/>
<path d="M60 566 c0 -2 7 -6 15 -10 8 -3 15 -1 15 4 0 6 -7 10 -15 10 -8 0
-15 -2 -15 -4z"/>
<path d="M93 405 c0 -7 6 -11 14 -8 9 4 11 0 7 -11 -3 -9 -1 -16 4 -16 15 0
22 14 14 26 -11 17 -39 23 -39 9z"/>
<path d="M130 302 c0 -5 7 -9 15 -9 8 0 12 4 9 9 -3 4 -9 8 -15 8 -5 0 -9 -4
-9 -8z"/>
<path d="M2766 282 c-3 -5 1 -9 9 -9 8 0 12 4 9 9 -3 4 -7 8 -9 8 -2 0 -6 -4
-9 -8z"/>
<path d="M195 250 c-4 -6 -4 -14 -1 -17 3 -4 6 -1 6 6 0 9 4 9 14 -1 8 -7 12
-21 11 -30 -3 -11 1 -15 11 -11 7 3 17 -2 20 -12 4 -9 13 -14 20 -11 14 5 29
-9 17 -17 -5 -2 -3 -2 4 -1 13 3 36 -20 27 -28 -3 -3 0 -9 7 -14 8 -4 10 -3 5
4 -4 7 -3 12 1 12 5 0 13 -8 20 -19 11 -17 63 -27 63 -12 -1 14 -19 35 -26 28
-4 -4 -13 -2 -21 4 -7 6 -13 8 -13 4 0 -4 -9 4 -21 19 -11 14 -24 24 -29 21
-4 -3 -13 2 -20 10 -29 35 -89 75 -95 65z m71 -52 l19 -23 -25 20 c-14 11 -27
21 -29 22 -2 2 0 3 6 3 5 0 18 -10 29 -22z m65 -45 c13 -16 12 -17 -3 -4 -10
7 -18 15 -18 17 0 8 8 3 21 -13z m61 -38 c3 0 9 -3 12 -6 4 -4 -3 -6 -15 -5
-12 0 -24 7 -27 15 -3 10 0 11 9 5 8 -5 17 -9 21 -9z"/>
<path d="M2710 239 c0 -5 5 -7 10 -4 6 3 10 8 10 11 0 2 -4 4 -10 4 -5 0 -10
-5 -10 -11z"/>
<path d="M2673 209 c-6 -6 -9 -18 -6 -26 3 -8 0 -13 -8 -11 -8 2 -13 -3 -11
-9 1 -7 -2 -13 -8 -13 -5 0 -10 6 -10 13 0 8 -4 7 -10 -3 -5 -8 -10 -11 -10
-6 0 5 -8 2 -17 -6 -10 -9 -25 -14 -34 -13 -9 2 -16 -4 -16 -11 0 -20 34 -17
46 4 9 15 11 15 20 -8 9 -20 11 -21 10 -5 -2 36 1 39 17 19 8 -10 13 -14 10
-8 -7 14 18 37 28 26 4 -4 7 -2 5 3 -1 6 1 18 5 27 11 25 4 42 -11 27z"/>
<path d="M663 93 c4 -3 2 -12 -5 -20 -6 -7 -8 -16 -4 -20 3 -3 6 0 6 8 0 12 2
12 10 -1 5 -8 13 -11 17 -6 4 5 3 11 -4 13 -7 2 -9 11 -6 19 3 8 -1 14 -8 14
-7 0 -9 -3 -6 -7z"/>
<path d="M1619 98 c0 -2 -2 -14 -5 -28 -3 -23 -3 -23 10 -7 14 17 27 23 25 10
-1 -5 -1 -15 0 -23 1 -12 4 -12 12 2 11 20 12 28 2 29 -5 1 -16 5 -25 10 -10
5 -18 8 -19 7z"/>
<path d="M1703 93 c4 -3 2 -12 -5 -20 -6 -7 -8 -16 -4 -20 3 -3 6 0 6 8 0 12
2 12 10 -1 5 -8 13 -11 17 -6 4 5 3 11 -4 13 -7 2 -9 11 -6 19 3 8 -1 14 -8
14 -7 0 -9 -3 -6 -7z"/>
<path d="M1019 73 c-10 -11 -10 -14 -1 -9 11 7 17 -6 12 -29 -1 -5 2 -7 6 -3
10 11 14 58 5 58 -5 0 -15 -8 -22 -17z"/>
<path d="M2264 78 c4 -20 26 -21 26 -1 0 14 -2 15 -9 4 -6 -9 -10 -10 -14 -2
-4 8 -5 8 -3 -1z"/>
<path d="M816 73 c-3 -4 -6 -11 -6 -17 0 -6 5 -4 10 4 6 10 10 11 10 3 0 -7 5
-13 10 -13 6 0 10 4 10 9 0 11 -26 22 -34 14z"/>
<path d="M1856 73 c-3 -4 -6 -11 -6 -17 0 -6 5 -4 10 4 6 10 10 11 10 3 0 -7
5 -13 10 -13 6 0 10 4 10 9 0 11 -26 22 -34 14z"/>
<path d="M2513 65 c0 -8 4 -12 9 -9 5 3 6 10 3 15 -9 13 -12 11 -12 -6z"/>
<path d="M956 43 c-6 -14 -5 -15 5 -6 7 7 10 15 7 18 -3 3 -9 -2 -12 -12z"/>
<path d="M1222 44 c-7 -8 -8 -14 -3 -14 10 0 25 19 20 25 -2 1 -10 -3 -17 -11z"/>
<path d="M2022 44 c-7 -8 -8 -14 -3 -14 10 0 25 19 20 25 -2 1 -10 -3 -17 -11z"/>
<path d="M700 39 c0 -5 5 -7 10 -4 6 3 10 8 10 11 0 2 -4 4 -10 4 -5 0 -10 -5
-10 -11z"/>
<path d="M1135 40 c3 -5 8 -10 11 -10 2 0 4 5 4 10 0 6 -5 10 -11 10 -5 0 -7
-4 -4 -10z"/>
<path d="M1165 40 c-3 -6 1 -7 9 -4 18 7 21 14 7 14 -6 0 -13 -4 -16 -10z"/>
<path d="M1935 40 c3 -5 8 -10 11 -10 2 0 4 5 4 10 0 6 -5 10 -11 10 -5 0 -7
-4 -4 -10z"/>
<path d="M2196 42 c-3 -5 1 -9 9 -9 8 0 12 4 9 9 -7 10 -11 10 -18 0z"/>
<path d="M2300 40 c8 -5 20 -10 25 -10 6 0 3 5 -5 10 -8 5 -19 10 -25 10 -5 0
-3 -5 5 -10z"/>
</g>
</svg>
